<svg width="500" height="500" viewBox="0 0 500 500" fill="none" xmlns="http://www.w3.org/2000/svg">
<g clip-path="url(#clip0_19:1091)">
<path d="M196.088 286.855C204.059 284.468 212.698 286.514 218.751 292.223L255.945 327.304C261.998 333.013 264.545 341.518 262.628 349.614L250.844 399.366C248.926 407.462 242.835 413.921 234.864 416.308L185.886 430.979C177.915 433.366 169.276 431.32 163.223 425.611L126.029 390.53C119.976 384.821 117.429 376.317 119.347 368.22L131.13 318.469C133.048 310.372 139.139 303.914 147.11 301.526L196.088 286.855Z" fill="#45A29E"/>
<path d="M163.059 256.157C171.029 253.77 179.668 255.816 185.721 261.525L222.915 296.606C228.968 302.315 231.516 310.82 229.598 318.916L217.815 368.668C215.897 376.764 209.805 383.223 201.835 385.61L152.857 400.281C144.886 402.668 136.247 400.622 130.194 394.913L93 359.832C86.947 354.123 84.3995 345.619 86.3172 337.522L98.1009 287.771C100.019 279.674 106.11 273.216 114.081 270.828L163.059 256.157Z" fill="#45A29E"/>
<path d="M130.031 225.46C138.002 223.072 146.641 225.118 152.694 230.827L189.888 265.908C195.941 271.617 198.489 280.122 196.571 288.218L184.787 337.97C182.869 346.066 176.778 352.525 168.807 354.912L119.829 369.583C111.859 371.971 103.22 369.924 97.1668 364.215L59.9726 329.135C53.9196 323.426 51.3722 314.921 53.2899 306.824L65.0736 257.073C66.9913 248.976 73.0828 242.518 81.0535 240.13L130.031 225.46Z" fill="#66FCF1"/>
<path d="M97.003 194.762C104.974 192.374 113.613 194.42 119.666 200.129L156.86 235.21C162.913 240.919 165.46 249.424 163.543 257.52L151.759 307.272C149.841 315.368 143.75 321.827 135.779 324.214L86.8011 338.885C78.8304 341.273 70.1914 339.226 64.1384 333.517L26.9443 298.437C20.8913 292.728 18.3439 284.223 20.2616 276.126L32.0453 226.375C33.963 218.278 40.0545 211.82 48.0252 209.432L97.003 194.762Z" fill="#66FCF1"/>
<path d="M289.934 209.343C296.119 207.49 302.822 209.078 307.519 213.508L336.38 240.729C341.077 245.159 343.054 251.758 341.566 258.041L332.422 296.646C330.934 302.928 326.207 307.94 320.022 309.792L282.018 321.176C275.833 323.029 269.129 321.441 264.433 317.011L235.572 289.79C230.875 285.36 228.898 278.761 230.386 272.478L239.53 233.874C241.018 227.591 245.745 222.579 251.929 220.727L289.934 209.343Z" fill="#45A29E"/>
<path d="M363.953 134.978C369.347 133.362 375.193 134.747 379.29 138.61L404.46 162.35C408.556 166.214 410.28 171.969 408.982 177.448L401.008 211.116C399.71 216.596 395.588 220.966 390.194 222.582L357.049 232.51C351.655 234.126 345.809 232.741 341.713 228.877L316.543 205.137C312.446 201.274 310.723 195.519 312.02 190.039L319.995 156.371C321.292 150.892 325.415 146.522 330.809 144.906L363.953 134.978Z" fill="#66FCF1"/>
<path d="M426.253 78.2002C430.475 76.9356 435.051 78.0194 438.257 81.0434L457.958 99.6253C461.164 102.649 462.514 107.154 461.498 111.443L455.256 137.796C454.24 142.084 451.014 145.505 446.792 146.77L420.849 154.541C416.627 155.806 412.051 154.722 408.844 151.698L389.143 133.116C385.937 130.092 384.588 125.587 385.603 121.298L391.845 94.9455C392.861 90.6568 396.087 87.2358 400.309 85.9711L426.253 78.2002Z" fill="#66FCF1"/>
<circle cx="468.134" cy="67.7962" r="19.7962" fill="#66FCF1"/>
</g>
<defs>
<clipPath id="clip0_19:1091">
<rect width="500" height="500" fill="white"/>
</clipPath>
</defs>
</svg>
